<svg xmlns="http://www.w3.org/2000/svg" width="1020" height="800" viewBox="0 0 1020 800" font-size="13px">
<defs><style>
    @keyframes rise { from { opacity: 0 } to { opacity: 1 } }
    @keyframes blink { 0%,49% { opacity: 1 } 50%,100% { opacity: 0 } }
    .art { opacity: 0; animation: rise .9s ease forwards .1s; fill: #b4611f; }
    .ln { opacity: 0; animation: rise .4s ease forwards; }
    .cur { fill: #0969da; animation: blink 1.1s step-end infinite; }
    .foot { opacity: 0; animation: rise .6s ease forwards 1.9s; }
    text { font-family: Consolas, "DejaVu Sans Mono", Menlo, monospace; }
    </style><linearGradient id="tt" x1="0" y1="0" x2="1" y2="0"><stop offset="0" stop-color="#0969da"/><stop offset="1" stop-color="#b4611f"/></linearGradient></defs>
<rect x="0.5" y="0.5" width="1019" height="799" rx="12" fill="#ffffff" stroke="#d0d7de"/>
<circle cx="26" cy="26" r="6" fill="#ff5f56"/>
<circle cx="46" cy="26" r="6" fill="#F2A03D"/>
<circle cx="66" cy="26" r="6" fill="#3fb950"/>
<text x="986" y="32" text-anchor="end" fill="#57606a" font-size="15">Software Engineer</text>
<g class="art" xml:space="preserve">
<text x="26" y="72.0" fill="#b4611f" font-size="11.5">                        .:        ..                    </text>
<text x="26" y="84.4" fill="#b4611f" font-size="11.5">                      . .=--=. .==:--..                 </text>
<text x="26" y="96.8" fill="#b4611f" font-size="11.5">                 ..----...-:-..:==..-===-:              </text>
<text x="26" y="109.2" fill="#b4611f" font-size="11.5">              :..::::.     ..     ..:-:-==.             </text>
<text x="26" y="121.6" fill="#b4611f" font-size="11.5">            . :..                    ...::.--           </text>
<text x="26" y="134.0" fill="#b4611f" font-size="11.5">          --        .:-=+*######*=-:.     .:--.         </text>
<text x="26" y="146.4" fill="#b4611f" font-size="11.5">         .-:    .=+#%@@@@@@@@@@@@@@@%#+-.    :.         </text>
<text x="26" y="158.8" fill="#b4611f" font-size="11.5">             .=#@@@@@@@@@@@@@@@@@@@@@@@@%+:     .       </text>
<text x="26" y="171.2" fill="#b4611f" font-size="11.5">           .+%@@@@@@@@@@@@@@@@@@@@@@@@@@@@%*:  :-.      </text>
<text x="26" y="183.6" fill="#b4611f" font-size="11.5">      ..  -%@@@@@@@@@@@@@@@@@@@@@@@@@@@@@@@@%= .. .     </text>
<text x="26" y="196.0" fill="#b4611f" font-size="11.5">     -:  =@@@@@@@@@@@@@@@@@@@@@@@@@@@@@@@@@@@@+ :.-.    </text>
<text x="26" y="208.4" fill="#b4611f" font-size="11.5">    .:  -@@@@@@@@@@@@@@@@@@@@@@@@@@@@@@@@@@@@@@+  .-.   </text>
<text x="26" y="220.8" fill="#b4611f" font-size="11.5">    .  .#@@@@@@@@%%%%@@@@@@@@@@@@@%%##**#%@@@@@#:  :-   </text>
<text x="26" y="233.2" fill="#b4611f" font-size="11.5">   ..  -%@@@%*=:.    :-+#%@@@@@%*=.     . :=%@@#: ....  </text>
<text x="26" y="245.6" fill="#b4611f" font-size="11.5">   .  ..#@@#-:=*****=-::-*@@@@@*=::=+**#*++==*@@+   .:  </text>
<text x="26" y="258.0" fill="#b4611f" font-size="11.5">       -@@#-+*###%%%%%*+=*%@@@%*:=#%%%%%##*+-.=%@=      </text>
<text x="26" y="270.4" fill="#b4611f" font-size="11.5">      .%@%: -+***##****++=#@@@%=+*****#*+==:   :%+=     </text>
<text x="26" y="282.8" fill="#b4611f" font-size="11.5">      -+#+    :--=====-:=*@@@@@*=---=-=-.      .##-     </text>
<text x="26" y="295.2" fill="#b4611f" font-size="11.5">     :=%%+.         ...:#@@@@@@@*=:.           -=%*     </text>
<text x="26" y="307.6" fill="#b4611f" font-size="11.5">     .*%##*-.        .-*%@@@@@@@@#=:.       .-+*##*.    </text>
<text x="26" y="320.0" fill="#b4611f" font-size="11.5">      #@%%#*=-::::-=+*#@@@@@@@@%#%%#*+=------=*#%##-.*+ </text>
<text x="26" y="332.4" fill="#b4611f" font-size="11.5">  :=:.%@@%##*****#%%@@@@#==*#*+-.-*%@@@%%##*****%%%=-=- </text>
<text x="26" y="344.8" fill="#b4611f" font-size="11.5">  -+*=%@@@@@@@@@@@@@@@%==-:-::..:-=+%@@@@@@@@@@%%@%*==  </text>
<text x="26" y="357.2" fill="#b4611f" font-size="11.5">   .++@@@@@@@@@@@@@@@@%#**##**+*==+*@@@@@@@@@@@@@@%*+*  </text>
<text x="26" y="369.6" fill="#b4611f" font-size="11.5">   -%+%@@@@@@@@@@@@@@@@%#%%%#%#%#*+*#%@@@@@@@@%@%%#*+*. </text>
<text x="26" y="382.0" fill="#b4611f" font-size="11.5">   =%*+%@@@@@@@@@@@@%##%@%%%%%%####**+##%%@@%%#%%#*=##  </text>
<text x="26" y="394.4" fill="#b4611f" font-size="11.5">   -@#-*#%%@@@@@@@%*++**===+++++==-==--+**######*++=#+  </text>
<text x="26" y="406.8" fill="#b4611f" font-size="11.5">    *%-=+*%%%@@@%%*==++*#%%###***##**+==+*###*++++++#:  </text>
<text x="26" y="419.2" fill="#b4611f" font-size="11.5">    -%+-++*##%%@%%%%@@@@%#+-....-+*%%%%%%###*+==++=-=   </text>
<text x="26" y="431.6" fill="#b4611f" font-size="11.5">     --:++++**#%#%%@@@@@@%%**++*#%@@%%%##**+=-==++:     </text>
<text x="26" y="444.0" fill="#b4611f" font-size="11.5">        -==+++****#%%@@@@@@@@%%%%%@@%%#*+=--::----      </text>
<text x="26" y="456.4" fill="#b4611f" font-size="11.5">         :---====++*##%%@%@%%#%%#***++===-:.....:       </text>
<text x="26" y="468.8" fill="#b4611f" font-size="11.5">            .::-::--=+++***++=====---::::..             </text>
<text x="26" y="481.2" fill="#b4611f" font-size="11.5">          .:       ..::.::......  .           ::        </text>
<text x="26" y="493.6" fill="#b4611f" font-size="11.5">          .=.                                .=-        </text>
<text x="26" y="506.0" fill="#b4611f" font-size="11.5">          .+-.                               :+=        </text>
<text x="26" y="518.4" fill="#b4611f" font-size="11.5">          .++-.                             :-+=        </text>
<text x="26" y="530.8" fill="#b4611f" font-size="11.5">          .+++-:                           .:-++-       </text>
<text x="26" y="543.2" fill="#b4611f" font-size="11.5">           +++==:.                        ..:-=+*=      </text>
</g>
<text x="26" y="582" class="ln" style="animation-delay:1.6s" fill="url(#tt)" font-size="20" font-weight="700">Khaled Omar</text>
<text x="545" y="56.0" xml:space="preserve" class="ln" style="animation-delay:0.30s"><tspan fill="#0969da">sunnysapartment@github </tspan><tspan fill="#afb8c1">─────────────────────────────────</tspan><tspan class="cur">█</tspan></text>
<text x="545" y="97.0" xml:space="preserve" class="ln" style="animation-delay:0.42s"><tspan fill="#953800">OS: </tspan><tspan fill="#afb8c1">..................................... </tspan><tspan fill="#24292f">macOS, Windows</tspan></text>
<text x="545" y="117.5" xml:space="preserve" class="ln" style="animation-delay:0.48s"><tspan fill="#953800">Uptime: </tspan><tspan fill="#afb8c1">........... </tspan><tspan fill="#24292f">6 years, 1 months, 12 days on GitHub</tspan></text>
<text x="545" y="138.0" xml:space="preserve" class="ln" style="animation-delay:0.54s"><tspan fill="#953800">Host: </tspan><tspan fill="#afb8c1">................................... </tspan><tspan fill="#24292f">Egypt · Remote</tspan></text>
<text x="545" y="158.5" xml:space="preserve" class="ln" style="animation-delay:0.60s"><tspan fill="#953800">Kernel: </tspan><tspan fill="#afb8c1">............. </tspan><tspan fill="#24292f">Software Engineer &amp; Technical Lead</tspan></text>
<text x="545" y="179.0" xml:space="preserve" class="ln" style="animation-delay:0.66s"><tspan fill="#953800">Stack: </tspan><tspan fill="#afb8c1">...... </tspan><tspan fill="#24292f">.NET · React · WordPress · AI · Automation</tspan></text>
<text x="545" y="199.5" xml:space="preserve" class="ln" style="animation-delay:0.72s"><tspan fill="#953800">IDE: </tspan><tspan fill="#afb8c1">...................... </tspan><tspan fill="#24292f">Claude Code, VS Code, Cursor</tspan></text>
<text x="545" y="240.5" xml:space="preserve" class="ln" style="animation-delay:0.84s"><tspan fill="#953800">Languages.Code: </tspan><tspan fill="#afb8c1">. </tspan><tspan fill="#24292f">HTML, TypeScript, C#, Twig, JavaScript</tspan></text>
<text x="545" y="261.0" xml:space="preserve" class="ln" style="animation-delay:0.90s"><tspan fill="#953800">Languages.Real: </tspan><tspan fill="#afb8c1">........................ </tspan><tspan fill="#24292f">Arabic, English</tspan></text>
<text x="545" y="281.5" xml:space="preserve" class="ln" style="animation-delay:0.96s"><tspan fill="#953800">Specialty: </tspan><tspan fill="#afb8c1">........ </tspan><tspan fill="#24292f">Arabic / RTL web · self-hosted tools</tspan></text>
<text x="545" y="302.0" xml:space="preserve" class="ln" style="animation-delay:1.02s"><tspan fill="#953800">Focus: </tspan><tspan fill="#afb8c1">.............. </tspan><tspan fill="#24292f">Building scalable digital products</tspan></text>
<text x="545" y="343.0" xml:space="preserve" class="ln" style="animation-delay:1.14s"><tspan fill="#0969da">─ Contact </tspan><tspan fill="#afb8c1">──────────────────────────────────────────────</tspan></text>
<text x="545" y="363.5" xml:space="preserve" class="ln" style="animation-delay:1.20s"><tspan fill="#953800">Instagram: </tspan><tspan fill="#afb8c1">............................... </tspan><tspan fill="#24292f">@khaled__omar</tspan></text>
<text x="545" y="384.0" xml:space="preserve" class="ln" style="animation-delay:1.26s"><tspan fill="#953800">Facebook: </tspan><tspan fill="#afb8c1">.............................. </tspan><tspan fill="#24292f">Always.Sunny.19</tspan></text>
<text x="545" y="425.0" xml:space="preserve" class="ln" style="animation-delay:1.38s"><tspan fill="#0969da">─ GitHub Stats </tspan><tspan fill="#afb8c1">─────────────────────────────────────────</tspan></text>
<text x="545" y="445.5" xml:space="preserve" class="ln" style="animation-delay:1.44s"><tspan fill="#953800">Repos: </tspan><tspan fill="#afb8c1">... </tspan><tspan fill="#24292f">62 {Contributed: 0}</tspan><tspan fill="#afb8c1"> | </tspan><tspan fill="#953800">Stars: </tspan><tspan fill="#afb8c1">.............. </tspan><tspan fill="#24292f">0</tspan></text>
<text x="545" y="466.0" xml:space="preserve" class="ln" style="animation-delay:1.50s"><tspan fill="#953800">Commits: </tspan><tspan fill="#afb8c1">................... </tspan><tspan fill="#24292f">0</tspan><tspan fill="#afb8c1"> | </tspan><tspan fill="#953800">Followers: </tspan><tspan fill="#afb8c1">.......... </tspan><tspan fill="#24292f">0</tspan></text>
<text x="545" y="486.5" xml:space="preserve" class="ln" style="animation-delay:1.56s"><tspan fill="#953800">Lines of Code: </tspan><tspan fill="#24292f">188,305</tspan><tspan fill="#afb8c1"> ( </tspan><tspan fill="#1a7f37">200,452++</tspan><tspan fill="#afb8c1">, </tspan><tspan fill="#cf222e">12,147--</tspan><tspan fill="#afb8c1"> )</tspan></text>
<line x1="24" y1="628" x2="994" y2="628" stroke="#d0d7de"/>
<g class="foot">
<text x="28" y="660" fill="#0969da" font-size="12">─ Languages</text>
<clipPath id="lc"><rect x="28" y="670" width="430" height="14" rx="4"/></clipPath>
<g clip-path="url(#lc)">
<rect x="28.0" y="670" width="313.0" height="14" fill="#e34c26"/>
<rect x="341.0" y="670" width="45.0" height="14" fill="#3178c6"/>
<rect x="386.0" y="670" width="40.8" height="14" fill="#178600"/>
<rect x="426.8" y="670" width="13.3" height="14" fill="#c1d026"/>
<rect x="440.2" y="670" width="10.3" height="14" fill="#f1e05a"/>
<rect x="450.5" y="670" width="7.5" height="14" fill="#4F5D95"/>
</g>
<circle cx="32" cy="698" r="4" fill="#e34c26"/>
<text x="41" y="702" fill="#24292f" font-size="11">HTML 73%</text>
<circle cx="99.8" cy="698" r="4" fill="#3178c6"/>
<text x="108.8" y="702" fill="#24292f" font-size="11">TypeScript 10%</text>
<circle cx="207.2" cy="698" r="4" fill="#178600"/>
<text x="216.2" y="702" fill="#24292f" font-size="11">C# 9%</text>
<circle cx="255.2" cy="698" r="4" fill="#c1d026"/>
<text x="264.2" y="702" fill="#24292f" font-size="11">Twig 3%</text>
<circle cx="316.4" cy="698" r="4" fill="#f1e05a"/>
<text x="325.4" y="702" fill="#24292f" font-size="11">JavaScript 2%</text>
<text x="545" y="650" fill="#0969da" font-size="12">─ Contribution activity</text>
<rect x="545" y="662" width="9" height="9" rx="2" fill="#ebedf0"/>
<rect x="545" y="673" width="9" height="9" rx="2" fill="#ebedf0"/>
<rect x="545" y="684" width="9" height="9" rx="2" fill="#ebedf0"/>
<rect x="545" y="695" width="9" height="9" rx="2" fill="#ebedf0"/>
<rect x="545" y="706" width="9" height="9" rx="2" fill="#ebedf0"/>
<rect x="545" y="717" width="9" height="9" rx="2" fill="#ebedf0"/>
<rect x="545" y="728" width="9" height="9" rx="2" fill="#ebedf0"/>
<rect x="556" y="662" width="9" height="9" rx="2" fill="#ebedf0"/>
<rect x="556" y="673" width="9" height="9" rx="2" fill="#ebedf0"/>
<rect x="556" y="684" width="9" height="9" rx="2" fill="#ebedf0"/>
<rect x="556" y="695" width="9" height="9" rx="2" fill="#ebedf0"/>
<rect x="556" y="706" width="9" height="9" rx="2" fill="#ebedf0"/>
<rect x="556" y="717" width="9" height="9" rx="2" fill="#ebedf0"/>
<rect x="556" y="728" width="9" height="9" rx="2" fill="#ebedf0"/>
<rect x="567" y="662" width="9" height="9" rx="2" fill="#ebedf0"/>
<rect x="567" y="673" width="9" height="9" rx="2" fill="#ebedf0"/>
<rect x="567" y="684" width="9" height="9" rx="2" fill="#ebedf0"/>
<rect x="567" y="695" width="9" height="9" rx="2" fill="#ebedf0"/>
<rect x="567" y="706" width="9" height="9" rx="2" fill="#ebedf0"/>
<rect x="567" y="717" width="9" height="9" rx="2" fill="#ebedf0"/>
<rect x="567" y="728" width="9" height="9" rx="2" fill="#ebedf0"/>
<rect x="578" y="662" width="9" height="9" rx="2" fill="#ebedf0"/>
<rect x="578" y="673" width="9" height="9" rx="2" fill="#ebedf0"/>
<rect x="578" y="684" width="9" height="9" rx="2" fill="#ebedf0"/>
<rect x="578" y="695" width="9" height="9" rx="2" fill="#ebedf0"/>
<rect x="578" y="706" width="9" height="9" rx="2" fill="#ebedf0"/>
<rect x="578" y="717" width="9" height="9" rx="2" fill="#ebedf0"/>
<rect x="578" y="728" width="9" height="9" rx="2" fill="#ebedf0"/>
<rect x="589" y="662" width="9" height="9" rx="2" fill="#ebedf0"/>
<rect x="589" y="673" width="9" height="9" rx="2" fill="#ebedf0"/>
<rect x="589" y="684" width="9" height="9" rx="2" fill="#ebedf0"/>
<rect x="589" y="695" width="9" height="9" rx="2" fill="#ebedf0"/>
<rect x="589" y="706" width="9" height="9" rx="2" fill="#ebedf0"/>
<rect x="589" y="717" width="9" height="9" rx="2" fill="#ebedf0"/>
<rect x="589" y="728" width="9" height="9" rx="2" fill="#ebedf0"/>
<rect x="600" y="662" width="9" height="9" rx="2" fill="#ebedf0"/>
<rect x="600" y="673" width="9" height="9" rx="2" fill="#ebedf0"/>
<rect x="600" y="684" width="9" height="9" rx="2" fill="#ebedf0"/>
<rect x="600" y="695" width="9" height="9" rx="2" fill="#ebedf0"/>
<rect x="600" y="706" width="9" height="9" rx="2" fill="#ebedf0"/>
<rect x="600" y="717" width="9" height="9" rx="2" fill="#ebedf0"/>
<rect x="600" y="728" width="9" height="9" rx="2" fill="#ebedf0"/>
<rect x="611" y="662" width="9" height="9" rx="2" fill="#ebedf0"/>
<rect x="611" y="673" width="9" height="9" rx="2" fill="#ebedf0"/>
<rect x="611" y="684" width="9" height="9" rx="2" fill="#ebedf0"/>
<rect x="611" y="695" width="9" height="9" rx="2" fill="#ebedf0"/>
<rect x="611" y="706" width="9" height="9" rx="2" fill="#ebedf0"/>
<rect x="611" y="717" width="9" height="9" rx="2" fill="#ebedf0"/>
<rect x="611" y="728" width="9" height="9" rx="2" fill="#ebedf0"/>
<rect x="622" y="662" width="9" height="9" rx="2" fill="#ebedf0"/>
<rect x="622" y="673" width="9" height="9" rx="2" fill="#ebedf0"/>
<rect x="622" y="684" width="9" height="9" rx="2" fill="#ebedf0"/>
<rect x="622" y="695" width="9" height="9" rx="2" fill="#ebedf0"/>
<rect x="622" y="706" width="9" height="9" rx="2" fill="#ebedf0"/>
<rect x="622" y="717" width="9" height="9" rx="2" fill="#ebedf0"/>
<rect x="622" y="728" width="9" height="9" rx="2" fill="#ebedf0"/>
<rect x="633" y="662" width="9" height="9" rx="2" fill="#ebedf0"/>
<rect x="633" y="673" width="9" height="9" rx="2" fill="#ebedf0"/>
<rect x="633" y="684" width="9" height="9" rx="2" fill="#ebedf0"/>
<rect x="633" y="695" width="9" height="9" rx="2" fill="#ebedf0"/>
<rect x="633" y="706" width="9" height="9" rx="2" fill="#ebedf0"/>
<rect x="633" y="717" width="9" height="9" rx="2" fill="#ebedf0"/>
<rect x="633" y="728" width="9" height="9" rx="2" fill="#ebedf0"/>
<rect x="644" y="662" width="9" height="9" rx="2" fill="#ebedf0"/>
<rect x="644" y="673" width="9" height="9" rx="2" fill="#ebedf0"/>
<rect x="644" y="684" width="9" height="9" rx="2" fill="#ebedf0"/>
<rect x="644" y="695" width="9" height="9" rx="2" fill="#ebedf0"/>
<rect x="644" y="706" width="9" height="9" rx="2" fill="#ebedf0"/>
<rect x="644" y="717" width="9" height="9" rx="2" fill="#ebedf0"/>
<rect x="644" y="728" width="9" height="9" rx="2" fill="#ebedf0"/>
<rect x="655" y="662" width="9" height="9" rx="2" fill="#ebedf0"/>
<rect x="655" y="673" width="9" height="9" rx="2" fill="#ebedf0"/>
<rect x="655" y="684" width="9" height="9" rx="2" fill="#ebedf0"/>
<rect x="655" y="695" width="9" height="9" rx="2" fill="#ebedf0"/>
<rect x="655" y="706" width="9" height="9" rx="2" fill="#ebedf0"/>
<rect x="655" y="717" width="9" height="9" rx="2" fill="#ebedf0"/>
<rect x="655" y="728" width="9" height="9" rx="2" fill="#ebedf0"/>
<rect x="666" y="662" width="9" height="9" rx="2" fill="#ebedf0"/>
<rect x="666" y="673" width="9" height="9" rx="2" fill="#ebedf0"/>
<rect x="666" y="684" width="9" height="9" rx="2" fill="#ebedf0"/>
<rect x="666" y="695" width="9" height="9" rx="2" fill="#ebedf0"/>
<rect x="666" y="706" width="9" height="9" rx="2" fill="#ebedf0"/>
<rect x="666" y="717" width="9" height="9" rx="2" fill="#ebedf0"/>
<rect x="666" y="728" width="9" height="9" rx="2" fill="#ebedf0"/>
<rect x="677" y="662" width="9" height="9" rx="2" fill="#ebedf0"/>
<rect x="677" y="673" width="9" height="9" rx="2" fill="#ebedf0"/>
<rect x="677" y="684" width="9" height="9" rx="2" fill="#ebedf0"/>
<rect x="677" y="695" width="9" height="9" rx="2" fill="#ebedf0"/>
<rect x="677" y="706" width="9" height="9" rx="2" fill="#ebedf0"/>
<rect x="677" y="717" width="9" height="9" rx="2" fill="#ebedf0"/>
<rect x="677" y="728" width="9" height="9" rx="2" fill="#ebedf0"/>
<rect x="688" y="662" width="9" height="9" rx="2" fill="#ebedf0"/>
<rect x="688" y="673" width="9" height="9" rx="2" fill="#ebedf0"/>
<rect x="688" y="684" width="9" height="9" rx="2" fill="#ebedf0"/>
<rect x="688" y="695" width="9" height="9" rx="2" fill="#ebedf0"/>
<rect x="688" y="706" width="9" height="9" rx="2" fill="#ebedf0"/>
<rect x="688" y="717" width="9" height="9" rx="2" fill="#ebedf0"/>
<rect x="688" y="728" width="9" height="9" rx="2" fill="#ebedf0"/>
<rect x="699" y="662" width="9" height="9" rx="2" fill="#ebedf0"/>
<rect x="699" y="673" width="9" height="9" rx="2" fill="#ebedf0"/>
<rect x="699" y="684" width="9" height="9" rx="2" fill="#ebedf0"/>
<rect x="699" y="695" width="9" height="9" rx="2" fill="#ebedf0"/>
<rect x="699" y="706" width="9" height="9" rx="2" fill="#ebedf0"/>
<rect x="699" y="717" width="9" height="9" rx="2" fill="#ebedf0"/>
<rect x="699" y="728" width="9" height="9" rx="2" fill="#ebedf0"/>
<rect x="710" y="662" width="9" height="9" rx="2" fill="#ebedf0"/>
<rect x="710" y="673" width="9" height="9" rx="2" fill="#ebedf0"/>
<rect x="710" y="684" width="9" height="9" rx="2" fill="#ebedf0"/>
<rect x="710" y="695" width="9" height="9" rx="2" fill="#ebedf0"/>
<rect x="710" y="706" width="9" height="9" rx="2" fill="#ebedf0"/>
<rect x="710" y="717" width="9" height="9" rx="2" fill="#ebedf0"/>
<rect x="710" y="728" width="9" height="9" rx="2" fill="#ebedf0"/>
<rect x="721" y="662" width="9" height="9" rx="2" fill="#ebedf0"/>
<rect x="721" y="673" width="9" height="9" rx="2" fill="#ebedf0"/>
<rect x="721" y="684" width="9" height="9" rx="2" fill="#ebedf0"/>
<rect x="721" y="695" width="9" height="9" rx="2" fill="#ebedf0"/>
<rect x="721" y="706" width="9" height="9" rx="2" fill="#ebedf0"/>
<rect x="721" y="717" width="9" height="9" rx="2" fill="#ebedf0"/>
<rect x="721" y="728" width="9" height="9" rx="2" fill="#ebedf0"/>
<rect x="732" y="662" width="9" height="9" rx="2" fill="#ebedf0"/>
<rect x="732" y="673" width="9" height="9" rx="2" fill="#ebedf0"/>
<rect x="732" y="684" width="9" height="9" rx="2" fill="#ebedf0"/>
<rect x="732" y="695" width="9" height="9" rx="2" fill="#ebedf0"/>
<rect x="732" y="706" width="9" height="9" rx="2" fill="#ebedf0"/>
<rect x="732" y="717" width="9" height="9" rx="2" fill="#ebedf0"/>
<rect x="732" y="728" width="9" height="9" rx="2" fill="#ebedf0"/>
<rect x="743" y="662" width="9" height="9" rx="2" fill="#ebedf0"/>
<rect x="743" y="673" width="9" height="9" rx="2" fill="#ebedf0"/>
<rect x="743" y="684" width="9" height="9" rx="2" fill="#ebedf0"/>
<rect x="743" y="695" width="9" height="9" rx="2" fill="#ebedf0"/>
<rect x="743" y="706" width="9" height="9" rx="2" fill="#ebedf0"/>
<rect x="743" y="717" width="9" height="9" rx="2" fill="#ebedf0"/>
<rect x="743" y="728" width="9" height="9" rx="2" fill="#ebedf0"/>
<rect x="754" y="662" width="9" height="9" rx="2" fill="#ebedf0"/>
<rect x="754" y="673" width="9" height="9" rx="2" fill="#ebedf0"/>
<rect x="754" y="684" width="9" height="9" rx="2" fill="#ebedf0"/>
<rect x="754" y="695" width="9" height="9" rx="2" fill="#ebedf0"/>
<rect x="754" y="706" width="9" height="9" rx="2" fill="#ebedf0"/>
<rect x="754" y="717" width="9" height="9" rx="2" fill="#ebedf0"/>
<rect x="754" y="728" width="9" height="9" rx="2" fill="#ebedf0"/>
<rect x="765" y="662" width="9" height="9" rx="2" fill="#ebedf0"/>
<rect x="765" y="673" width="9" height="9" rx="2" fill="#ebedf0"/>
<rect x="765" y="684" width="9" height="9" rx="2" fill="#ebedf0"/>
<rect x="765" y="695" width="9" height="9" rx="2" fill="#ebedf0"/>
<rect x="765" y="706" width="9" height="9" rx="2" fill="#ebedf0"/>
<rect x="765" y="717" width="9" height="9" rx="2" fill="#ebedf0"/>
<rect x="765" y="728" width="9" height="9" rx="2" fill="#ebedf0"/>
<rect x="776" y="662" width="9" height="9" rx="2" fill="#ebedf0"/>
<rect x="776" y="673" width="9" height="9" rx="2" fill="#ebedf0"/>
<rect x="776" y="684" width="9" height="9" rx="2" fill="#ebedf0"/>
<rect x="776" y="695" width="9" height="9" rx="2" fill="#ebedf0"/>
<rect x="776" y="706" width="9" height="9" rx="2" fill="#ebedf0"/>
<rect x="776" y="717" width="9" height="9" rx="2" fill="#ebedf0"/>
<rect x="776" y="728" width="9" height="9" rx="2" fill="#ebedf0"/>
<rect x="787" y="662" width="9" height="9" rx="2" fill="#ebedf0"/>
<rect x="787" y="673" width="9" height="9" rx="2" fill="#ebedf0"/>
<rect x="787" y="684" width="9" height="9" rx="2" fill="#ebedf0"/>
<rect x="787" y="695" width="9" height="9" rx="2" fill="#ebedf0"/>
<rect x="787" y="706" width="9" height="9" rx="2" fill="#ebedf0"/>
<rect x="787" y="717" width="9" height="9" rx="2" fill="#ebedf0"/>
<rect x="787" y="728" width="9" height="9" rx="2" fill="#ebedf0"/>
<rect x="798" y="662" width="9" height="9" rx="2" fill="#ebedf0"/>
<rect x="798" y="673" width="9" height="9" rx="2" fill="#ebedf0"/>
<rect x="798" y="684" width="9" height="9" rx="2" fill="#ebedf0"/>
<rect x="798" y="695" width="9" height="9" rx="2" fill="#ebedf0"/>
<rect x="798" y="706" width="9" height="9" rx="2" fill="#ebedf0"/>
<rect x="798" y="717" width="9" height="9" rx="2" fill="#ebedf0"/>
<rect x="798" y="728" width="9" height="9" rx="2" fill="#ebedf0"/>
<rect x="809" y="662" width="9" height="9" rx="2" fill="#ebedf0"/>
<rect x="809" y="673" width="9" height="9" rx="2" fill="#ebedf0"/>
<rect x="809" y="684" width="9" height="9" rx="2" fill="#ebedf0"/>
<rect x="809" y="695" width="9" height="9" rx="2" fill="#ebedf0"/>
<rect x="809" y="706" width="9" height="9" rx="2" fill="#ebedf0"/>
<rect x="809" y="717" width="9" height="9" rx="2" fill="#ebedf0"/>
<rect x="809" y="728" width="9" height="9" rx="2" fill="#ebedf0"/>
<rect x="820" y="662" width="9" height="9" rx="2" fill="#ebedf0"/>
<rect x="820" y="673" width="9" height="9" rx="2" fill="#ebedf0"/>
<rect x="820" y="684" width="9" height="9" rx="2" fill="#ebedf0"/>
<rect x="820" y="695" width="9" height="9" rx="2" fill="#ebedf0"/>
<rect x="820" y="706" width="9" height="9" rx="2" fill="#ebedf0"/>
<rect x="820" y="717" width="9" height="9" rx="2" fill="#ebedf0"/>
<rect x="820" y="728" width="9" height="9" rx="2" fill="#ebedf0"/>
<rect x="831" y="662" width="9" height="9" rx="2" fill="#ebedf0"/>
<rect x="831" y="673" width="9" height="9" rx="2" fill="#ebedf0"/>
<rect x="831" y="684" width="9" height="9" rx="2" fill="#ebedf0"/>
<rect x="831" y="695" width="9" height="9" rx="2" fill="#ebedf0"/>
<rect x="831" y="706" width="9" height="9" rx="2" fill="#ebedf0"/>
<rect x="831" y="717" width="9" height="9" rx="2" fill="#ebedf0"/>
<rect x="831" y="728" width="9" height="9" rx="2" fill="#ebedf0"/>
<rect x="842" y="662" width="9" height="9" rx="2" fill="#ebedf0"/>
<rect x="842" y="673" width="9" height="9" rx="2" fill="#ebedf0"/>
<rect x="842" y="684" width="9" height="9" rx="2" fill="#ebedf0"/>
<rect x="842" y="695" width="9" height="9" rx="2" fill="#ebedf0"/>
<rect x="842" y="706" width="9" height="9" rx="2" fill="#ebedf0"/>
<rect x="842" y="717" width="9" height="9" rx="2" fill="#ebedf0"/>
<rect x="842" y="728" width="9" height="9" rx="2" fill="#ebedf0"/>
<rect x="853" y="662" width="9" height="9" rx="2" fill="#ebedf0"/>
<rect x="853" y="673" width="9" height="9" rx="2" fill="#ebedf0"/>
<rect x="853" y="684" width="9" height="9" rx="2" fill="#ebedf0"/>
<rect x="853" y="695" width="9" height="9" rx="2" fill="#ebedf0"/>
<rect x="853" y="706" width="9" height="9" rx="2" fill="#ebedf0"/>
<rect x="853" y="717" width="9" height="9" rx="2" fill="#ebedf0"/>
<rect x="853" y="728" width="9" height="9" rx="2" fill="#ebedf0"/>
<rect x="864" y="662" width="9" height="9" rx="2" fill="#ebedf0"/>
<rect x="864" y="673" width="9" height="9" rx="2" fill="#ebedf0"/>
<rect x="864" y="684" width="9" height="9" rx="2" fill="#ebedf0"/>
<rect x="864" y="695" width="9" height="9" rx="2" fill="#ebedf0"/>
<rect x="864" y="706" width="9" height="9" rx="2" fill="#ebedf0"/>
<rect x="864" y="717" width="9" height="9" rx="2" fill="#ebedf0"/>
<rect x="864" y="728" width="9" height="9" rx="2" fill="#ebedf0"/>
</g>
</svg>